# xmcd
#
# Track frame offsets: 
#        150
#        16145
#        28585
#        44670
#        62227
#        74370
#        92327
#        101925
#        113487
#        127277
#        139877
#        156692
#        173020
#        187590
#
# Disc length: 2709 seconds
#
# Revision: 3
# Processed by: cddbd v1.4PL0 Copyright (c) Steve Scherf et al.
# Submitted via: ExactAudioCopy v0.90b4
#
DISCID=c30a930e
DTITLE=John Anderson - You Can't Keep A Good Memory Down
DYEAR=1998
DGENRE=Country
TTITLE0=Down In The Orange Grove
TTITLE1=I Make It Hard To Lose
TTITLE2=Crazy Love
TTITLE3=Medicine Woman
TTITLE4=Lower On The Hog
TTITLE5=Quittin' Time
TTITLE6=His And Hers
TTITLE7=If It Ain't Broke, Don't Fix It
TTITLE8=There's Nothing Left For Me To Take For Granted
TTITLE9=Lying In Her Arms
TTITLE10=The Ballad Of Zero And The Tramp
TTITLE11=Warm Place In The Snow
TTITLE12=You Can't Keep A Good Memory Down
TTITLE13=Blue Skies Again
EXTD=
EXTT0=
EXTT1=
EXTT2=
EXTT3=
EXTT4=
EXTT5=
EXTT6=
EXTT7=
EXTT8=
EXTT9=
EXTT10=
EXTT11=
EXTT12=
EXTT13=
PLAYORDER=
